<svg xmlns="http://www.w3.org/2000/svg" xmlns:xlink="http://www.w3.org/1999/xlink" viewBox="0 0 355 235"><g transform="translate(0 82.859)" id="ss747063206_1"><g opacity="0.5"><defs><linearGradient id="idss747063206_2g1335928327" x1="0.5011129005694421" x2="0.49283526817880596" y1="0.5776651937027197" y2="0"><stop offset="0" stop-color="rgb(11,11,11)" stop-opacity="1"></stop><stop offset="1" stop-color="rgb(0,133,99)" stop-opacity="1"></stop></linearGradient></defs><path d="M 0 58.396 C 0 58.396 43.318 17.306 57.901 14.294 C 72.485 11.281 94.815 54.856 118.65 53.985 C 142.485 53.115 161.455 37.323 177.5 34.278 C 193.545 31.233 210.354 57.808 237.3 64.068 C 264.245 70.327 282.772 6.192 295.2 0.935 C 307.629 -4.321 355 14.294 355 14.294 L 355 152.141 L 0 152.141 Z" fill="url(#idss747063206_2g1335928327)"></path></g><path d="M 0 58.253 C 0 58.253 43.318 17.263 57.901 14.259 C 72.485 11.253 94.815 54.722 118.65 53.854 C 142.485 52.984 161.455 37.231 177.5 34.193 C 193.545 31.156 210.354 57.666 237.3 63.91 C 264.245 70.155 282.772 6.176 295.2 0.933 C 307.629 -4.31 355 14.259 355 14.259" fill="transparent" stroke-width="2.06" stroke="rgb(0,133,99)" stroke-linecap="round" stroke-miterlimit="10"></path><g opacity="0.5"><defs><linearGradient id="idss747063206_4g92413387" x1="0.4990778968637484" x2="0.5025125628140703" y1="0.6834985241140672" y2="0"><stop offset="0" stop-color="rgb(11,11,11)" stop-opacity="1"></stop><stop offset="1" stop-color="rgb(211,255,202)" stop-opacity="1"></stop></linearGradient></defs><path d="M 0 103.236 C 0 103.236 13.604 97.494 57.901 69.332 C 102.199 41.169 104.263 13.982 118.65 13.982 C 133.037 13.982 156.075 60.043 177.5 60.043 C 198.925 60.043 202.846 31.096 237.3 35.026 C 271.753 38.956 278.441 65.999 295.2 73.467 C 311.96 80.935 355 44.324 355 44.324 L 355 152.141 L 0 152.141 Z" fill="url(#idss747063206_4g92413387)"></path></g><path d="M 0 103.076 C 0 103.076 13.604 97.344 57.901 69.232 C 102.199 41.12 104.263 13.981 118.65 13.981 C 133.037 13.981 156.075 59.96 177.5 59.96 C 198.925 59.96 202.846 31.065 237.3 34.988 C 271.753 38.91 278.441 65.905 295.2 73.36 C 311.96 80.815 355 44.271 355 44.271" fill="transparent" stroke-width="2.06" stroke="rgb(211,255,202)" stroke-linecap="round" stroke-miterlimit="10"></path></g><path d="M 236.236 125.333 C 240.514 125.333 243.982 121.826 243.982 117.5 C 243.982 113.174 240.514 109.667 236.236 109.667 C 231.959 109.667 228.491 113.174 228.491 117.5 C 228.491 121.826 231.959 125.333 236.236 125.333 Z" fill="rgba(255,255,255,0.3)"></path><path d="M 236.236 122.722 C 239.088 122.722 241.4 120.384 241.4 117.5 C 241.4 114.616 239.088 112.278 236.236 112.278 C 233.385 112.278 231.073 114.616 231.073 117.5 C 231.073 120.384 233.385 122.722 236.236 122.722 Z" fill="rgb(211,255,202)"></path></svg>